<svg width="25" height="25" viewBox="0 0 25 25" fill="none" xmlns="http://www.w3.org/2000/svg">
<mask id="mask0_5_25" style="mask-type:alpha" maskUnits="userSpaceOnUse" x="0" y="0" width="25" height="25">
<rect x="0.165176" y="0.903381" width="24" height="24" fill="#D9D9D9"/>
</mask>
<g mask="url(#mask0_5_25)">
<path d="M6.01518 18.0034C6.86518 17.3534 7.81518 16.8409 8.86518 16.4659C9.91518 16.0909 11.0152 15.9034 12.1652 15.9034C13.3152 15.9034 14.4152 16.0909 15.4652 16.4659C16.5152 16.8409 17.4652 17.3534 18.3152 18.0034C18.8985 17.32 19.3527 16.545 19.6777 15.6784C20.0027 14.8117 20.1652 13.8867 20.1652 12.9034C20.1652 10.6867 19.386 8.79921 17.8277 7.24088C16.2693 5.68255 14.3818 4.90338 12.1652 4.90338C9.94851 4.90338 8.06101 5.68255 6.50268 7.24088C4.94434 8.79921 4.16518 10.6867 4.16518 12.9034C4.16518 13.8867 4.32768 14.8117 4.65268 15.6784C4.97768 16.545 5.43184 17.32 6.01518 18.0034ZM12.1652 13.9034C11.1818 13.9034 10.3527 13.5659 9.67768 12.8909C9.00268 12.2159 8.66518 11.3867 8.66518 10.4034C8.66518 9.42005 9.00268 8.59088 9.67768 7.91588C10.3527 7.24088 11.1818 6.90338 12.1652 6.90338C13.1485 6.90338 13.9777 7.24088 14.6527 7.91588C15.3277 8.59088 15.6652 9.42005 15.6652 10.4034C15.6652 11.3867 15.3277 12.2159 14.6527 12.8909C13.9777 13.5659 13.1485 13.9034 12.1652 13.9034ZM12.1652 22.9034C10.7818 22.9034 9.48184 22.6409 8.26518 22.1159C7.04851 21.5909 5.99018 20.8784 5.09018 19.9784C4.19018 19.0784 3.47768 18.02 2.95268 16.8034C2.42768 15.5867 2.16518 14.2867 2.16518 12.9034C2.16518 11.52 2.42768 10.22 2.95268 9.00338C3.47768 7.78671 4.19018 6.72838 5.09018 5.82838C5.99018 4.92838 7.04851 4.21588 8.26518 3.69088C9.48184 3.16588 10.7818 2.90338 12.1652 2.90338C13.5485 2.90338 14.8485 3.16588 16.0652 3.69088C17.2818 4.21588 18.3402 4.92838 19.2402 5.82838C20.1402 6.72838 20.8527 7.78671 21.3777 9.00338C21.9027 10.22 22.1652 11.52 22.1652 12.9034C22.1652 14.2867 21.9027 15.5867 21.3777 16.8034C20.8527 18.02 20.1402 19.0784 19.2402 19.9784C18.3402 20.8784 17.2818 21.5909 16.0652 22.1159C14.8485 22.6409 13.5485 22.9034 12.1652 22.9034ZM12.1652 20.9034C13.0485 20.9034 13.8818 20.7742 14.6652 20.5159C15.4485 20.2575 16.1652 19.8867 16.8152 19.4034C16.1652 18.92 15.4485 18.5492 14.6652 18.2909C13.8818 18.0325 13.0485 17.9034 12.1652 17.9034C11.2818 17.9034 10.4485 18.0325 9.66518 18.2909C8.88184 18.5492 8.16518 18.92 7.51518 19.4034C8.16518 19.8867 8.88184 20.2575 9.66518 20.5159C10.4485 20.7742 11.2818 20.9034 12.1652 20.9034ZM12.1652 11.9034C12.5985 11.9034 12.9568 11.7617 13.2402 11.4784C13.5235 11.195 13.6652 10.8367 13.6652 10.4034C13.6652 9.97005 13.5235 9.61171 13.2402 9.32838C12.9568 9.04505 12.5985 8.90338 12.1652 8.90338C11.7318 8.90338 11.3735 9.04505 11.0902 9.32838C10.8068 9.61171 10.6652 9.97005 10.6652 10.4034C10.6652 10.8367 10.8068 11.195 11.0902 11.4784C11.3735 11.7617 11.7318 11.9034 12.1652 11.9034Z" fill="white"/>
</g>
</svg>
