<svg width="25" height="25" viewBox="0 0 25 25" fill="none" xmlns="http://www.w3.org/2000/svg">
<mask id="mask0_48_7" style="mask-type:alpha" maskUnits="userSpaceOnUse" x="0" y="0" width="25" height="25">
<rect x="0.981262" y="0.97274" width="24" height="24" fill="#D9D9D9"/>
</mask>
<g mask="url(#mask0_48_7)">
<path d="M11.9813 17.9727H13.9813V13.9727H17.9813V11.9727H13.9813V7.97274H11.9813V11.9727H7.98126V13.9727H11.9813V17.9727ZM12.9813 22.9727C11.5979 22.9727 10.2979 22.7102 9.08126 22.1852C7.8646 21.6602 6.80626 20.9477 5.90626 20.0477C5.00626 19.1477 4.29376 18.0894 3.76876 16.8727C3.24376 15.6561 2.98126 14.3561 2.98126 12.9727C2.98126 11.5894 3.24376 10.2894 3.76876 9.07274C4.29376 7.85607 5.00626 6.79774 5.90626 5.89774C6.80626 4.99774 7.8646 4.28524 9.08126 3.76024C10.2979 3.23524 11.5979 2.97274 12.9813 2.97274C14.3646 2.97274 15.6646 3.23524 16.8813 3.76024C18.0979 4.28524 19.1563 4.99774 20.0563 5.89774C20.9563 6.79774 21.6688 7.85607 22.1938 9.07274C22.7188 10.2894 22.9813 11.5894 22.9813 12.9727C22.9813 14.3561 22.7188 15.6561 22.1938 16.8727C21.6688 18.0894 20.9563 19.1477 20.0563 20.0477C19.1563 20.9477 18.0979 21.6602 16.8813 22.1852C15.6646 22.7102 14.3646 22.9727 12.9813 22.9727ZM12.9813 20.9727C15.2146 20.9727 17.1063 20.1977 18.6563 18.6477C20.2063 17.0977 20.9813 15.2061 20.9813 12.9727C20.9813 10.7394 20.2063 8.84774 18.6563 7.29774C17.1063 5.74774 15.2146 4.97274 12.9813 4.97274C10.7479 4.97274 8.85626 5.74774 7.30626 7.29774C5.75626 8.84774 4.98126 10.7394 4.98126 12.9727C4.98126 15.2061 5.75626 17.0977 7.30626 18.6477C8.85626 20.1977 10.7479 20.9727 12.9813 20.9727Z" fill="white"/>
</g>
</svg>
