<svg width="25" height="25" viewBox="0 0 25 25" fill="none" xmlns="http://www.w3.org/2000/svg">
<mask id="mask0_45_7" style="mask-type:alpha" maskUnits="userSpaceOnUse" x="0" y="0" width="25" height="25">
<rect x="0.981262" y="0.97274" width="24" height="24" fill="#D9D9D9"/>
</mask>
<g mask="url(#mask0_45_7)">
<path d="M4.98126 21.9727C4.43126 21.9727 3.96043 21.7769 3.56876 21.3852C3.1771 20.9936 2.98126 20.5227 2.98126 19.9727V8.97274C2.98126 8.42274 3.1771 7.95191 3.56876 7.56024C3.96043 7.16857 4.43126 6.97274 4.98126 6.97274H8.98126V4.97274C8.98126 4.42274 9.1771 3.95191 9.56876 3.56024C9.96043 3.16857 10.4313 2.97274 10.9813 2.97274H14.9813C15.5313 2.97274 16.0021 3.16857 16.3938 3.56024C16.7854 3.95191 16.9813 4.42274 16.9813 4.97274V6.97274H20.9813C21.5313 6.97274 22.0021 7.16857 22.3938 7.56024C22.7854 7.95191 22.9813 8.42274 22.9813 8.97274V19.9727C22.9813 20.5227 22.7854 20.9936 22.3938 21.3852C22.0021 21.7769 21.5313 21.9727 20.9813 21.9727H4.98126ZM10.9813 6.97274H14.9813V4.97274H10.9813V6.97274ZM20.9813 15.9727H15.9813V17.9727H9.98126V15.9727H4.98126V19.9727H20.9813V15.9727ZM11.9813 15.9727H13.9813V13.9727H11.9813V15.9727ZM4.98126 13.9727H9.98126V11.9727H15.9813V13.9727H20.9813V8.97274H4.98126V13.9727Z" fill="white"/>
</g>
</svg>
