<svg width="25" height="25" viewBox="0 0 25 25" fill="none" xmlns="http://www.w3.org/2000/svg">
<mask id="mask0_44_7" style="mask-type:alpha" maskUnits="userSpaceOnUse" x="0" y="0" width="25" height="25">
<rect x="0.981262" y="0.97274" width="24" height="24" fill="#D9D9D9"/>
</mask>
<g mask="url(#mask0_44_7)">
<path d="M4.98126 22.9727V11.9727H2.98126V5.97274H8.18126C8.09793 5.82274 8.04376 5.66441 8.01876 5.49774C7.99376 5.33107 7.98126 5.15607 7.98126 4.97274C7.98126 4.13941 8.27293 3.43107 8.85626 2.84774C9.4396 2.26441 10.1479 1.97274 10.9813 1.97274C11.3646 1.97274 11.7229 2.04357 12.0563 2.18524C12.3896 2.32691 12.6979 2.52274 12.9813 2.77274C13.2646 2.50607 13.5729 2.30607 13.9063 2.17274C14.2396 2.03941 14.5979 1.97274 14.9813 1.97274C15.8146 1.97274 16.5229 2.26441 17.1063 2.84774C17.6896 3.43107 17.9813 4.13941 17.9813 4.97274C17.9813 5.15607 17.9646 5.32691 17.9313 5.48524C17.8979 5.64357 17.8479 5.80607 17.7813 5.97274H22.9813V11.9727H20.9813V22.9727H4.98126ZM14.9813 3.97274C14.6979 3.97274 14.4604 4.06857 14.2688 4.26024C14.0771 4.45191 13.9813 4.68941 13.9813 4.97274C13.9813 5.25607 14.0771 5.49357 14.2688 5.68524C14.4604 5.87691 14.6979 5.97274 14.9813 5.97274C15.2646 5.97274 15.5021 5.87691 15.6938 5.68524C15.8854 5.49357 15.9813 5.25607 15.9813 4.97274C15.9813 4.68941 15.8854 4.45191 15.6938 4.26024C15.5021 4.06857 15.2646 3.97274 14.9813 3.97274ZM9.98126 4.97274C9.98126 5.25607 10.0771 5.49357 10.2688 5.68524C10.4604 5.87691 10.6979 5.97274 10.9813 5.97274C11.2646 5.97274 11.5021 5.87691 11.6938 5.68524C11.8854 5.49357 11.9813 5.25607 11.9813 4.97274C11.9813 4.68941 11.8854 4.45191 11.6938 4.26024C11.5021 4.06857 11.2646 3.97274 10.9813 3.97274C10.6979 3.97274 10.4604 4.06857 10.2688 4.26024C10.0771 4.45191 9.98126 4.68941 9.98126 4.97274ZM4.98126 7.97274V9.97274H11.9813V7.97274H4.98126ZM11.9813 20.9727V11.9727H6.98126V20.9727H11.9813ZM13.9813 20.9727H18.9813V11.9727H13.9813V20.9727ZM20.9813 9.97274V7.97274H13.9813V9.97274H20.9813Z" fill="white"/>
</g>
</svg>
