<svg width="25" height="25" viewBox="0 0 25 25" fill="none" xmlns="http://www.w3.org/2000/svg">
<mask id="mask0_40_25" style="mask-type:alpha" maskUnits="userSpaceOnUse" x="0" y="0" width="25" height="25">
<rect x="0.0462341" y="0.179276" width="24" height="24" fill="#D9D9D9"/>
</mask>
<g mask="url(#mask0_40_25)">
<path d="M7.04623 22.1793V17.1793H2.04623V7.17928H7.04623V2.17928H17.0462V7.17928H22.0462V17.1793H17.0462V22.1793H7.04623ZM4.04623 11.1793H9.04623C9.2129 11.1793 9.37123 11.2209 9.52123 11.3043C9.67123 11.3876 9.7879 11.4959 9.87123 11.6293L10.7462 12.9293L12.0962 8.87928C12.1629 8.67928 12.2837 8.51261 12.4587 8.37928C12.6337 8.24594 12.8296 8.17928 13.0462 8.17928C13.2129 8.17928 13.3712 8.22094 13.5212 8.30428C13.6712 8.38761 13.7879 8.49594 13.8712 8.62928L15.5712 11.1793H20.0462V9.17928H15.0462V4.17928H9.04623V9.17928H4.04623V11.1793ZM9.04623 20.1793H15.0462V15.1793H20.0462V13.1793H15.0462C14.8796 13.1793 14.7212 13.1376 14.5712 13.0543C14.4212 12.9709 14.2962 12.8626 14.1962 12.7293L13.3462 11.4293L11.9962 15.4793C11.9296 15.6793 11.8046 15.8459 11.6212 15.9793C11.4379 16.1126 11.2379 16.1793 11.0212 16.1793C10.8546 16.1793 10.6962 16.1376 10.5462 16.0543C10.3962 15.9709 10.2796 15.8626 10.1962 15.7293L8.49623 13.1793H4.04623V15.1793H9.04623V20.1793Z" fill="white"/>
</g>
</svg>
