<svg width="25" height="25" viewBox="0 0 25 25" fill="none" xmlns="http://www.w3.org/2000/svg">
<mask id="mask0_2_13" style="mask-type:alpha" maskUnits="userSpaceOnUse" x="0" y="0" width="25" height="25">
<rect x="0.140625" y="0.0651436" width="24" height="24" fill="#D9D9D9"/>
</mask>
<g mask="url(#mask0_2_13)">
<path d="M8.14062 12.0651V10.0651H16.1406V12.0651H8.14062ZM8.14062 8.06514V6.06514H16.1406V8.06514H8.14062ZM6.14062 14.0651H13.6406C14.124 14.0651 14.574 14.1693 14.9906 14.3776C15.4073 14.586 15.7573 14.8818 16.0406 15.2651L18.1406 18.0151V4.06514H6.14062V14.0651ZM6.14062 20.0651H17.1906L14.4656 16.4901C14.3656 16.3568 14.2448 16.2526 14.1031 16.1776C13.9615 16.1026 13.8073 16.0651 13.6406 16.0651H6.14062V20.0651ZM18.1406 22.0651H6.14062C5.59062 22.0651 5.11979 21.8693 4.72813 21.4776C4.33646 21.086 4.14062 20.6151 4.14062 20.0651V4.06514C4.14062 3.51514 4.33646 3.04431 4.72813 2.65264C5.11979 2.26098 5.59062 2.06514 6.14062 2.06514H18.1406C18.6906 2.06514 19.1615 2.26098 19.5531 2.65264C19.9448 3.04431 20.1406 3.51514 20.1406 4.06514V20.0651C20.1406 20.6151 19.9448 21.086 19.5531 21.4776C19.1615 21.8693 18.6906 22.0651 18.1406 22.0651Z" fill="white"/>
</g>
</svg>
