<svg width="25" height="25" viewBox="0 0 25 25" fill="none" xmlns="http://www.w3.org/2000/svg">
<mask id="mask0_5_31" style="mask-type:alpha" maskUnits="userSpaceOnUse" x="0" y="0" width="25" height="25">
<rect x="0.165176" y="0.903381" width="24" height="24" fill="#D9D9D9"/>
</mask>
<g mask="url(#mask0_5_31)">
<path d="M6.01518 12.9034L5.71518 11.4034C5.51518 11.32 5.32768 11.2325 5.15268 11.1409C4.97768 11.0492 4.79851 10.9367 4.61518 10.8034L3.16518 11.2534L2.16518 9.55338L3.31518 8.55338C3.28184 8.33671 3.26518 8.12005 3.26518 7.90338C3.26518 7.68671 3.28184 7.47005 3.31518 7.25338L2.16518 6.25338L3.16518 4.55338L4.61518 5.00338C4.79851 4.87005 4.97768 4.75755 5.15268 4.66588C5.32768 4.57421 5.51518 4.48671 5.71518 4.40338L6.01518 2.90338H8.01518L8.31518 4.40338C8.51518 4.48671 8.70268 4.57421 8.87768 4.66588C9.05268 4.75755 9.23184 4.87005 9.41518 5.00338L10.8652 4.55338L11.8652 6.25338L10.7152 7.25338C10.7485 7.47005 10.7652 7.68671 10.7652 7.90338C10.7652 8.12005 10.7485 8.33671 10.7152 8.55338L11.8652 9.55338L10.8652 11.2534L9.41518 10.8034C9.23184 10.9367 9.05268 11.0492 8.87768 11.1409C8.70268 11.2325 8.51518 11.32 8.31518 11.4034L8.01518 12.9034H6.01518ZM7.01518 9.90338C7.56518 9.90338 8.03601 9.70755 8.42768 9.31588C8.81934 8.92421 9.01518 8.45338 9.01518 7.90338C9.01518 7.35338 8.81934 6.88255 8.42768 6.49088C8.03601 6.09921 7.56518 5.90338 7.01518 5.90338C6.46518 5.90338 5.99434 6.09921 5.60268 6.49088C5.21101 6.88255 5.01518 7.35338 5.01518 7.90338C5.01518 8.45338 5.21101 8.92421 5.60268 9.31588C5.99434 9.70755 6.46518 9.90338 7.01518 9.90338ZM14.9652 23.9034L14.5152 21.8034C14.2318 21.7034 13.9693 21.5825 13.7277 21.4409C13.486 21.2992 13.2485 21.1367 13.0152 20.9534L11.0152 21.6034L9.61518 19.2034L11.2152 17.8034C11.1818 17.5034 11.1652 17.2034 11.1652 16.9034C11.1652 16.6034 11.1818 16.3034 11.2152 16.0034L9.61518 14.6034L11.0152 12.2034L13.0152 12.8534C13.2485 12.67 13.486 12.5075 13.7277 12.3659C13.9693 12.2242 14.2318 12.1034 14.5152 12.0034L14.9652 9.90338H17.7652L18.2152 12.0034C18.4985 12.1034 18.761 12.2242 19.0027 12.3659C19.2443 12.5075 19.4818 12.67 19.7152 12.8534L21.7152 12.2034L23.1152 14.6034L21.5152 16.0034C21.5485 16.3034 21.5652 16.6034 21.5652 16.9034C21.5652 17.2034 21.5485 17.5034 21.5152 17.8034L23.1152 19.2034L21.7152 21.6034L19.7152 20.9534C19.4818 21.1367 19.2443 21.2992 19.0027 21.4409C18.761 21.5825 18.4985 21.7034 18.2152 21.8034L17.7652 23.9034H14.9652ZM16.3652 19.9034C17.1985 19.9034 17.9068 19.6117 18.4902 19.0284C19.0735 18.445 19.3652 17.7367 19.3652 16.9034C19.3652 16.07 19.0735 15.3617 18.4902 14.7784C17.9068 14.195 17.1985 13.9034 16.3652 13.9034C15.5318 13.9034 14.8235 14.195 14.2402 14.7784C13.6568 15.3617 13.3652 16.07 13.3652 16.9034C13.3652 17.7367 13.6568 18.445 14.2402 19.0284C14.8235 19.6117 15.5318 19.9034 16.3652 19.9034Z" fill="white"/>
</g>
</svg>
