<svg width="25" height="25" viewBox="0 0 25 25" fill="none" xmlns="http://www.w3.org/2000/svg">
<mask id="mask0_37_19" style="mask-type:alpha" maskUnits="userSpaceOnUse" x="0" y="0" width="25" height="25">
<rect x="0.0462341" y="0.179276" width="24" height="24" fill="#D9D9D9"/>
</mask>
<g mask="url(#mask0_37_19)">
<path d="M7.04623 22.1793V13.0293C6.19623 12.7959 5.48373 12.3293 4.90873 11.6293C4.33373 10.9293 4.04623 10.1126 4.04623 9.17928V2.17928H6.04623V9.17928H7.04623V2.17928H9.04623V9.17928H10.0462V2.17928H12.0462V9.17928C12.0462 10.1126 11.7587 10.9293 11.1837 11.6293C10.6087 12.3293 9.89623 12.7959 9.04623 13.0293V22.1793H7.04623ZM17.0462 22.1793V14.1793H14.0462V7.17928C14.0462 5.79594 14.5337 4.61678 15.5087 3.64178C16.4837 2.66678 17.6629 2.17928 19.0462 2.17928V22.1793H17.0462Z" fill="white"/>
</g>
</svg>
