<svg width="25" height="25" viewBox="0 0 25 25" fill="none" xmlns="http://www.w3.org/2000/svg">
<mask id="mask0_15_13" style="mask-type:alpha" maskUnits="userSpaceOnUse" x="0" y="0" width="25" height="25">
<rect x="0.0462341" y="0.179276" width="24" height="24" fill="#D9D9D9"/>
</mask>
<g mask="url(#mask0_15_13)">
<path d="M14.2962 21.5793C13.9129 21.9626 13.4379 22.1543 12.8712 22.1543C12.3046 22.1543 11.8296 21.9626 11.4462 21.5793L2.64623 12.7793C2.4629 12.5959 2.31707 12.3793 2.20873 12.1293C2.1004 11.8793 2.04623 11.6126 2.04623 11.3293V4.17928C2.04623 3.62928 2.24207 3.15844 2.63373 2.76678C3.0254 2.37511 3.49623 2.17928 4.04623 2.17928H11.1962C11.4796 2.17928 11.7462 2.23344 11.9962 2.34178C12.2462 2.45011 12.4629 2.59594 12.6462 2.77928L21.4462 11.6043C21.8296 11.9876 22.0212 12.4584 22.0212 13.0168C22.0212 13.5751 21.8296 14.0459 21.4462 14.4293L14.2962 21.5793ZM12.8712 20.1793L20.0212 13.0293L11.1962 4.17928H4.04623V11.3293L12.8712 20.1793ZM6.54623 8.17928C6.9629 8.17928 7.31707 8.03344 7.60873 7.74178C7.9004 7.45011 8.04623 7.09594 8.04623 6.67928C8.04623 6.26261 7.9004 5.90844 7.60873 5.61678C7.31707 5.32511 6.9629 5.17928 6.54623 5.17928C6.12957 5.17928 5.7754 5.32511 5.48373 5.61678C5.19207 5.90844 5.04623 6.26261 5.04623 6.67928C5.04623 7.09594 5.19207 7.45011 5.48373 7.74178C5.7754 8.03344 6.12957 8.17928 6.54623 8.17928Z" fill="white"/>
</g>
</svg>
